<svg xmlns="http://www.w3.org/2000/svg" height="24px" viewBox="0 0 24 24" width="24px">
  <path fill="currentColor" d="M12 4a1 1 0 0 1 1-1h2a1 1 0 0 1 0 2h-2a1 1 0 0 1-1-1zm0 14a1 1 0 0 1 1-1h2a1 1 0 0 1 0 2h-2a1 1 0 0 1-1-1zm-8-6a1 1 0 0 1 1-1v-2a1 1 0 0 1 2 0v2a1 1 0 0 1-1 1zm14 0a1 1 0 0 1 1-1v-2a1 1 0 0 1 2 0v2a1 1 0 0 1-1 1zm-7-7a1 1 0 0 1 1-1h2a1 1 0 0 1 0 2h-2a1 1 0 0 1-1-1zm0 14a1 1 0 0 1 1-1h2a1 1 0 0 1 0 2h-2a1 1 0 0 1-1-1zm-8-6a1 1 0 0 1 1-1v-2a1 1 0 0 1 2 0v2a1 1 0 0 1-1 1zm14 0a1 1 0 0 1 1-1v-2a1 1 0 0 1 2 0v2a1 1 0 0 1-1 1z"/>
</svg>